<svg width="125" height="26" viewBox="0 0 125 26" fill="none" xmlns="http://www.w3.org/2000/svg">
<path d="M65.7361 0H57.4139V25.8161H65.7361V0Z" fill="white"/>
<path d="M70.6588 0V25.8161H78.9809V16.2062V0H70.6588Z" fill="white"/>
<path d="M88.2917 16.2062L97.7334 0H88.4226L78.9809 16.2062H84.0386L88.3776 25.8161H97.7334L93.3043 16.2062H88.2917Z" fill="white"/>
<path d="M111.27 0C103.793 0 97.7334 5.77854 97.7334 12.908C97.7334 20.0375 103.795 25.8161 111.27 25.8161C118.745 25.8161 124.807 20.0375 124.807 12.908C124.807 5.77854 118.747 0 111.27 0ZM111.27 17.8826C108.168 17.8826 105.645 15.651 105.645 12.908C105.645 10.1651 108.169 7.93352 111.27 7.93352C114.371 7.93352 116.895 10.1651 116.895 12.908C116.895 15.651 114.371 17.8826 111.27 17.8826Z" fill="white"/>
<path d="M34.7779 0L27.878 25.8161H36.1033L36.9951 22.3594H45.8341L46.7259 25.8161H54.9512L48.0527 0H34.7779ZM38.5837 16.2062L41.4146 6.14909L44.2455 16.2062H38.5824H38.5837Z" fill="white"/>
<path d="M24.3885 12.424C21.9994 11.1058 18.5345 11.4354 18.5345 11.4354L22.9403 7.1254C24.3203 5.74162 24.7771 3.73704 23.573 2.10303C22.5912 0.769833 20.7353 0 18.7935 0H0.803345V25.8161H18.8549C24.3489 25.8161 27.878 22.4154 27.878 18.2367C27.878 15.7317 26.678 13.6874 24.3885 12.424ZM8.76142 6.16277H13.9432L8.76142 11.434V6.16277ZM16.2545 19.6629H8.77642V16.1542H16.2545C18.2808 16.1542 19.294 16.6054 19.294 17.8962C19.294 19.187 18.049 19.6642 16.2545 19.6642V19.6629Z" fill="white"/>
</svg>
